<svg id="Capa_1" data-name="Capa 1" xmlns="http://www.w3.org/2000/svg" width="2343" height="1089" viewBox="0 0 2343 1089"><defs><style>.cls-1{fill:#00b4d8;}.cls-2{fill:#fff;}</style></defs><path class="cls-1" d="M311.2926,675.4437c40.0091,0,60.8877-25.4521,60.8877-56.0933,0-30.4072-22.5984-56.0931-59.9642-56.0931H206.444c-86.2866,0-86.2866,0-86.2895-88.8229-.007-216.6358,0-281.7822,0-407.7219,0-27.8724-20.2657-57.3939-56.0933-57.3939-34.087,0-56.0931,28.3177-56.0931,54.4422,0,130.3094.0177,294.9963.0038,499.4965-.0038,56.0932,56.0894,112.1864,112.1826,112.1864Z"/><path class="cls-2" d="M690.0774,234.9631q0-25.5462,20.5508-43.3256,20.5428-17.7522,44.9853-17.7684,24.4234,0,44.432,17.7684,19.9977,17.7848,19.9976,43.3256,0,27.7754-19.9976,44.432-19.99,16.662-44.432,16.662-24.44,0-44.9853-16.662Q690.0611,262.7331,690.0774,234.9631Zm62.5625,166.62h3.6446a54.2736,54.2736,0,0,1,54.2736,54.2736v355.765a54.2736,54.2736,0,0,1-54.2736,54.2736H752.64a54.2736,54.2736,0,0,1-54.2736-54.2736V455.8567A54.2736,54.2736,0,0,1,752.64,401.5831Z"/><path class="cls-2" d="M1206.7483,1086q-79.9744,0-131.0723-27.77a529.1306,529.1306,0,0,1-51.4691-31.8884,49.2484,49.2484,0,0,1-9.04-72.6421l.7383-.8491c17.0491-19.6061,46.1214-22.3906,67.1217-7.0916a268.6869,268.6869,0,0,0,36.5281,22.5007q37.1967,18.875,84.97,18.88,74.4094,0,116.0808-35.5424,41.655-35.5693,42.7723-95.53V828.1244c0-17.617-20.7337-26.6864-33.9263-15.0111a209.0381,209.0381,0,0,1-37.7225,26.2923q-48.3263,26.6608-116.0808,26.6582-64.435,0-117.74-32.2122-53.3217-32.2093-85.5338-87.7521Q940.14,690.565,940.1563,620.5759q0-72.1886,33.8772-128.2953,33.8772-56.08,89.4281-88.3107,55.5183-32.2012,118.8469-32.2121,61.0831,0,110.5268,22.7692,25.72,11.8563,44.0769,26.8706c12.4041,10.1449,31.0684,2.8748,33.0921-13.0213v0a20.2958,20.2958,0,0,1,20.1333-17.7327h65.1306a20.2958,20.2958,0,0,1,20.2958,20.2958V858.286q0,63.3206-33.324,114.9689-33.324,51.6539-93.8647,82.1981Q1287.829,1085.9947,1206.7483,1086ZM1053.46,617.2456q0,44.4375,20.5455,79.9744a152.1965,152.1965,0,0,0,55.54,56.0986q35,20.5672,78.32,20.5509,57.7312,0,98.8547-30.547,39.6692-29.4887,55.5533-75.0413a20.4357,20.4357,0,0,0,1.104-6.7181V572.9313a20.44,20.44,0,0,0-1.1088-6.7351q-15.9027-45.4788-56.1018-73.9156-41.655-29.4187-98.3014-29.4351-43.331,0-78.32,19.9923a149.3636,149.3636,0,0,0-55.54,54.9867Q1053.4384,572.8083,1053.46,617.2456Z"/><path class="cls-2" d="M1663.1852,6.1622h0a55.9842,55.9842,0,0,1,56.0931,55.8747V810.0206a55.9842,55.9842,0,0,1-56.0931,55.8747h0a55.9842,55.9842,0,0,1-56.0931-55.8747V62.0369A55.9842,55.9842,0,0,1,1663.1852,6.1622Z"/><path class="cls-2" d="M2107.3438,866.0638q-79.9662,0-137.7382-31.6589-57.7637-31.6562-88.864-87.7521-31.1111-56.08-31.1-127.1888,0-68.861,34.9945-124.965,34.9838-56.0715,93.8648-89.4172,58.854-33.324,131.0668-33.324,93.3007,0,154.9588,53.8748,51.8022,45.2928,74.9793,121.5519a32.009,32.009,0,0,1-20.0273,39.6761l-313.941,108.49c-11.1192,3.8425-15.0582,17.7862-7.3185,26.6461a138.089,138.089,0,0,0,38.5989,30.7637q32.7382,17.7848,72.75,17.7739a169.2933,169.2933,0,0,0,57.7638-9.9961,184.6818,184.6818,0,0,0,17.31-7.2536,45.7554,45.7554,0,0,1,58.7969,17.3477v0c15.58,25.3992,5.2318,59-22.2025,70.6282q-14.2564,6.0427-29.4759,10.9186Q2148.4456,866.0583,2107.3438,866.0638Zm-146.6224-253.26v0a16.608,16.608,0,0,0,22.3,15.5946l219.6038-80.1153a16.6863,16.6863,0,0,0,8.6848-24.26,165.967,165.967,0,0,0-33.4347-38.9614q-28.3123-24.4235-76.0854-24.44-62.2141,0-101.6372,42.7668Q1960.7106,546.1582,1960.7214,612.8035Z"/><path class="cls-2" d="M177.2071,468.6922c-18.1653-22.4423-11.1353-56.6077,15.0721-68.7241a283.5188,283.5188,0,0,1,116.9265-25.8362q76.0034,0,134.6371,30.1679,58.6556,30.1624,91.0492,84.9065,32.4208,54.7277,32.4045,129.6019,0,74.8414-34.6412,130.1583-34.614,55.3086-91.0492,84.9119-56.4133,29.59-121.228,29.606-58.0664,0-102.2216-15.64a261.78,261.78,0,0,1-31.9447-13.7216c-25.1714-12.9053-32.691-45.323-15.4442-67.7439l1.6464-2.14a44.821,44.821,0,0,1,56.0681-12.6074q8.0408,4.1352,17.0492,7.9517,29.0658,12.2827,65.911,12.2908,40.2276,0,72.6212-20.1137,32.4208-20.1055,51.4-54.7441,19.0009-34.6385,18.9845-78.2073,0-42.47-19.5518-77.089a142.977,142.977,0,0,0-54.7386-54.7441q-35.2032-20.1138-79.8876-20.1137a170.3432,170.3432,0,0,0-54.1822,8.3793,149.8436,149.8436,0,0,0-15.3644,6.0622,44.7632,44.7632,0,0,1-53.5162-12.6107Z"/></svg>