<?xml version="1.0" standalone="no"?>
<!DOCTYPE svg PUBLIC "-//W3C//DTD SVG 20010904//EN"
 "http://www.w3.org/TR/2001/REC-SVG-20010904/DTD/svg10.dtd">
<svg version="1.0" xmlns="http://www.w3.org/2000/svg"
 width="2001.000000pt" height="2001.000000pt" viewBox="0 0 2001.000000 2001.000000"
 preserveAspectRatio="xMidYMid meet">
<metadata>
Created by potrace 1.14, written by Peter Selinger 2001-2017
</metadata>
<g transform="translate(0.000000,2001.000000) scale(0.100000,-0.100000)"
fill="#000000" stroke="none">
<path d="M6073 17299 c-221 -21 -428 -123 -584 -286 -122 -129 -198 -263 -242
-426 l-22 -82 0 -4420 0 -4420 23 -114 c146 -718 755 -1371 1468 -1571 220
-62 166 -60 2057 -60 1113 0 1751 4 1804 10 240 30 431 115 585 259 136 128
218 279 260 481 25 122 21 346 -10 455 -46 167 -126 308 -239 421 -117 117
-270 203 -451 252 l-97 26 -1340 7 c-928 4 -1375 10 -1455 18 -442 46 -591
161 -655 505 -38 208 -38 195 -44 4226 l-6 3925 -22 76 c-143 488 -541 766
-1030 718z"/>
<path d="M10080 11064 c-19 -2 -91 -9 -160 -15 -453 -40 -977 -173 -1415 -359
-195 -82 -254 -118 -346 -210 -75 -75 -93 -100 -137 -191 -61 -127 -82 -215
-82 -352 0 -127 24 -229 79 -342 77 -155 196 -272 356 -350 118 -57 204 -77
329 -77 125 0 205 18 355 81 310 130 568 194 899 222 175 14 509 7 672 -16
771 -106 1427 -520 1827 -1152 131 -209 252 -495 314 -748 57 -232 72 -373 73
-660 1 -284 -8 -383 -55 -618 -153 -771 -658 -1436 -1345 -1773 -214 -105
-462 -178 -729 -216 -132 -19 -548 -15 -710 6 -356 46 -658 141 -1011 319
-114 57 -195 78 -324 84 -137 6 -244 -15 -365 -72 -195 -93 -382 -317 -440
-530 -26 -96 -31 -246 -11 -345 53 -260 200 -442 463 -574 327 -163 736 -301
1113 -375 578 -114 1313 -132 1847 -46 512 82 1037 267 1484 520 533 303 1009
749 1356 1270 360 540 553 1081 640 1795 26 210 26 899 0 1115 -68 566 -195
1006 -418 1445 -460 907 -1254 1571 -2298 1920 -321 107 -700 185 -1092 226
-144 14 -781 28 -869 18z"/>
</g>
</svg>
