<svg id="Capa_1" data-name="Capa 1" xmlns="http://www.w3.org/2000/svg" width="2332.948" height="1079.8378" viewBox="0 0 2332.948 1079.8378"><defs><style>.cls-1{fill:#00b4d8;}.cls-2{fill:#03045e;}</style></defs><path class="cls-1" d="M303.3245,669.2816c40.0091,0,60.8878-25.4522,60.8878-56.0933,0-30.4072-22.5984-56.0932-59.9642-56.0932H198.4759c-86.2866,0-86.2866,0-86.2894-88.8229-.0071-216.6358,0-281.7821,0-407.7219,0-27.8723-20.2657-57.3939-56.0933-57.3939C22.0062,3.1564,0,31.4741,0,57.5987,0,187.9081.0177,352.5949.0038,557.0951,0,613.1883,56.0932,669.2816,112.1865,669.2816Z"/><path class="cls-2" d="M682.1093,228.8009q0-25.5462,20.5509-43.3255,20.5428-17.7522,44.9852-17.7685,24.4236,0,44.432,17.7685,19.9977,17.7847,19.9977,43.3255,0,27.7755-19.9977,44.432-19.9895,16.662-44.432,16.662-24.44,0-44.9852-16.662Q682.0931,256.5709,682.1093,228.8009Zm62.5625,166.62h3.6447A54.2736,54.2736,0,0,1,802.59,449.6945V805.46a54.2737,54.2737,0,0,1-54.2736,54.2737h-3.6447A54.2737,54.2737,0,0,1,690.3982,805.46V449.6945A54.2736,54.2736,0,0,1,744.6718,395.4209Z"/><path class="cls-2" d="M1198.78,1079.8378q-79.9743,0-131.0722-27.77a529.1057,529.1057,0,0,1-51.4691-31.8883,49.2484,49.2484,0,0,1-9.04-72.6422l.7384-.849c17.049-19.6062,46.1213-22.3907,67.1216-7.0917a268.6887,268.6887,0,0,0,36.5282,22.5008q37.1965,18.875,84.97,18.88,74.41,0,116.0808-35.5423,41.655-35.5695,42.7723-95.53V821.9623c0-17.617-20.7336-26.6865-33.9263-15.0112a209.0325,209.0325,0,0,1-37.7224,26.2924q-48.3264,26.6608-116.0808,26.6581-64.435,0-117.7405-32.2121-53.3217-32.2093-85.5338-87.7521-32.2338-55.5347-32.2175-125.5237,0-72.1884,33.8772-128.2952,33.8774-56.08,89.4281-88.3108,55.5183-32.2013,118.8469-32.2121,61.0831,0,110.5268,22.7692,25.72,11.8563,44.0769,26.8706c12.4041,10.145,31.0684,2.8748,33.0921-13.0213v0a20.2959,20.2959,0,0,1,20.1334-17.7326H1447.3a20.2958,20.2958,0,0,1,20.2958,20.2958V852.1238q0,63.3206-33.324,114.9689-33.324,51.6538-93.8648,82.1981Q1279.8611,1079.8325,1198.78,1079.8378ZM1045.492,611.0835q0,44.4374,20.5454,79.9743a152.1983,152.1983,0,0,0,55.54,56.0987q35,20.5671,78.32,20.5509,57.7312,0,98.8547-30.547,39.6692-29.4888,55.5533-75.0414a20.4353,20.4353,0,0,0,1.104-6.7181V566.7691a20.4364,20.4364,0,0,0-1.1088-6.735q-15.9026-45.479-56.1017-73.9156-41.655-29.4189-98.3015-29.4351-43.331,0-78.32,19.9922a149.3653,149.3653,0,0,0-55.54,54.9868Q1045.47,566.646,1045.492,611.0835Z"/><path class="cls-2" d="M1655.2172,0h0a55.9843,55.9843,0,0,1,56.0932,55.8748V803.8584a55.9843,55.9843,0,0,1-56.0932,55.8748h0a55.9843,55.9843,0,0,1-56.0932-55.8748V55.8748A55.9843,55.9843,0,0,1,1655.2172,0Z"/><path class="cls-2" d="M2099.3757,859.9016q-79.9662,0-137.7381-31.6589-57.7638-31.6562-88.864-87.7521-31.111-56.08-31.1-127.1888,0-68.8608,34.9946-124.965,34.9837-56.0715,93.8648-89.4172,58.8539-33.324,131.0668-33.324,93.3006,0,154.9587,53.8749,51.8022,45.2926,74.9793,121.5518a32.0088,32.0088,0,0,1-20.0273,39.6761l-313.941,108.49c-11.1192,3.8425-15.0582,17.7862-7.3184,26.6461a138.09,138.09,0,0,0,38.5989,30.7636q32.7381,17.7848,72.75,17.7739a169.2907,169.2907,0,0,0,57.7637-9.9961,184.6586,184.6586,0,0,0,17.31-7.2535,45.7552,45.7552,0,0,1,58.7969,17.3476l0,0c15.58,25.3993,5.2318,59-22.2026,70.6282q-14.2564,6.0429-29.4758,10.9186Q2140.4775,859.8962,2099.3757,859.9016Zm-146.6223-253.26h0a16.6079,16.6079,0,0,0,22.3,15.5946l219.6038-80.1153a16.6862,16.6862,0,0,0,8.6848-24.26,165.9689,165.9689,0,0,0-33.4347-38.9613q-28.3125-24.4236-76.0855-24.44-62.214,0-101.6371,42.7669Q1952.7426,539.9961,1952.7534,606.6414Z"/><path class="cls-2" d="M169.239,462.53c-18.1653-22.4422-11.1352-56.6076,15.0721-68.724A283.5151,283.5151,0,0,1,301.2376,367.97q76.0034,0,134.6371,30.1679Q494.53,428.3,526.9239,483.0442q32.4208,54.7277,32.4046,129.6018,0,74.8415-34.6413,130.1583-34.614,55.3087-91.0492,84.912-56.4133,29.59-121.2279,29.606-58.0663,0-102.2217-15.64A261.8024,261.8024,0,0,1,178.2437,827.96c-25.1714-12.9053-32.6909-45.323-15.4441-67.7438l1.6464-2.14a44.8211,44.8211,0,0,1,56.0681-12.6073q8.0407,4.135,17.0491,7.9517,29.0659,12.2826,65.9111,12.2908,40.2274,0,72.6211-20.1137,32.421-20.1057,51.4-54.7441,19.0008-34.6386,18.9844-78.2074,0-42.4695-19.5518-77.089a142.977,142.977,0,0,0-54.7386-54.7441q-35.2032-20.1137-79.8876-20.1137a170.3412,170.3412,0,0,0-54.1822,8.3794,149.8613,149.8613,0,0,0-15.3644,6.0621A44.7632,44.7632,0,0,1,169.2391,462.53Z"/></svg>